<mxfile host="app.diagrams.net" modified="2020-05-07T00:57:26.933Z" agent="5.0 (Windows NT 10.0; Win64; x64) AppleWebKit/537.36 (KHTML, like Gecko) Chrome/81.0.4044.129 Safari/537.36" etag="-IseY7oCCP74qzNgN6F0" version="13.0.3" type="github">
  <diagram id="Br8Mk88pdOw2TFy8Bcp0" name="Page-1">
    <mxGraphModel dx="716" dy="344" grid="1" gridSize="10" guides="1" tooltips="1" connect="1" arrows="1" fold="1" page="1" pageScale="1" pageWidth="827" pageHeight="1169" math="0" shadow="0">
      <root>
        <mxCell id="0" />
        <mxCell id="1" parent="0" />
        <mxCell id="xK1VYx0fI5H-2KNGupgd-1" value="Xna" style="rounded=0;whiteSpace=wrap;html=1;" parent="1" vertex="1">
          <mxGeometry x="80" y="210" width="40" height="70" as="geometry" />
        </mxCell>
        <mxCell id="xK1VYx0fI5H-2KNGupgd-2" value="ANN(A)" style="rounded=0;whiteSpace=wrap;html=1;" parent="1" vertex="1">
          <mxGeometry x="200" y="350" width="80" height="70" as="geometry" />
        </mxCell>
        <mxCell id="xK1VYx0fI5H-2KNGupgd-3" value="ANN(B)" style="rounded=0;whiteSpace=wrap;html=1;" parent="1" vertex="1">
          <mxGeometry x="200" y="250" width="80" height="70" as="geometry" />
        </mxCell>
        <mxCell id="xK1VYx0fI5H-2KNGupgd-4" value="ANN(C)" style="rounded=0;whiteSpace=wrap;html=1;" parent="1" vertex="1">
          <mxGeometry x="200" y="110" width="80" height="70" as="geometry" />
        </mxCell>
        <mxCell id="xK1VYx0fI5H-2KNGupgd-5" value="case" style="rounded=0;whiteSpace=wrap;html=1;" parent="1" vertex="1">
          <mxGeometry x="80" y="320" width="40" height="20" as="geometry" />
        </mxCell>
        <mxCell id="xK1VYx0fI5H-2KNGupgd-15" value="" style="endArrow=classic;html=1;exitX=1;exitY=0.5;exitDx=0;exitDy=0;entryX=0;entryY=0.5;entryDx=0;entryDy=0;" parent="1" target="xK1VYx0fI5H-2KNGupgd-4" edge="1">
          <mxGeometry width="50" height="50" relative="1" as="geometry">
            <mxPoint x="140" y="285" as="sourcePoint" />
            <mxPoint x="460" y="310" as="targetPoint" />
          </mxGeometry>
        </mxCell>
        <mxCell id="xK1VYx0fI5H-2KNGupgd-16" value="" style="endArrow=classic;html=1;exitX=1;exitY=0.5;exitDx=0;exitDy=0;entryX=0;entryY=0.5;entryDx=0;entryDy=0;" parent="1" target="xK1VYx0fI5H-2KNGupgd-3" edge="1">
          <mxGeometry width="50" height="50" relative="1" as="geometry">
            <mxPoint x="140" y="285" as="sourcePoint" />
            <mxPoint x="460" y="310" as="targetPoint" />
          </mxGeometry>
        </mxCell>
        <mxCell id="xK1VYx0fI5H-2KNGupgd-17" value="" style="endArrow=classic;html=1;exitX=1;exitY=0.5;exitDx=0;exitDy=0;entryX=0;entryY=0.5;entryDx=0;entryDy=0;" parent="1" target="xK1VYx0fI5H-2KNGupgd-2" edge="1">
          <mxGeometry width="50" height="50" relative="1" as="geometry">
            <mxPoint x="140" y="285" as="sourcePoint" />
            <mxPoint x="460" y="310" as="targetPoint" />
          </mxGeometry>
        </mxCell>
        <mxCell id="xK1VYx0fI5H-2KNGupgd-18" value="Sle" style="text;html=1;strokeColor=#000000;fillColor=none;align=center;verticalAlign=middle;whiteSpace=wrap;rounded=0;" parent="1" vertex="1">
          <mxGeometry x="320" y="350" width="40" height="20" as="geometry" />
        </mxCell>
        <mxCell id="xK1VYx0fI5H-2KNGupgd-19" value="Shc" style="text;html=1;strokeColor=#000000;fillColor=none;align=center;verticalAlign=middle;whiteSpace=wrap;rounded=0;" parent="1" vertex="1">
          <mxGeometry x="320" y="375" width="40" height="20" as="geometry" />
        </mxCell>
        <mxCell id="xK1VYx0fI5H-2KNGupgd-20" value="She" style="text;html=1;strokeColor=#000000;fillColor=none;align=center;verticalAlign=middle;whiteSpace=wrap;rounded=0;" parent="1" vertex="1">
          <mxGeometry x="320" y="400" width="40" height="20" as="geometry" />
        </mxCell>
        <mxCell id="xK1VYx0fI5H-2KNGupgd-22" value="" style="endArrow=classic;html=1;exitX=1;exitY=0.5;exitDx=0;exitDy=0;entryX=0;entryY=0.5;entryDx=0;entryDy=0;" parent="1" source="xK1VYx0fI5H-2KNGupgd-2" target="xK1VYx0fI5H-2KNGupgd-18" edge="1">
          <mxGeometry width="50" height="50" relative="1" as="geometry">
            <mxPoint x="410" y="360" as="sourcePoint" />
            <mxPoint x="460" y="310" as="targetPoint" />
          </mxGeometry>
        </mxCell>
        <mxCell id="xK1VYx0fI5H-2KNGupgd-23" value="" style="endArrow=classic;html=1;exitX=1;exitY=0.5;exitDx=0;exitDy=0;entryX=0;entryY=0.5;entryDx=0;entryDy=0;" parent="1" source="xK1VYx0fI5H-2KNGupgd-2" target="xK1VYx0fI5H-2KNGupgd-19" edge="1">
          <mxGeometry width="50" height="50" relative="1" as="geometry">
            <mxPoint x="410" y="360" as="sourcePoint" />
            <mxPoint x="460" y="310" as="targetPoint" />
          </mxGeometry>
        </mxCell>
        <mxCell id="xK1VYx0fI5H-2KNGupgd-24" value="" style="endArrow=classic;html=1;exitX=1;exitY=0.5;exitDx=0;exitDy=0;entryX=0;entryY=0.5;entryDx=0;entryDy=0;" parent="1" source="xK1VYx0fI5H-2KNGupgd-2" target="xK1VYx0fI5H-2KNGupgd-20" edge="1">
          <mxGeometry width="50" height="50" relative="1" as="geometry">
            <mxPoint x="410" y="360" as="sourcePoint" />
            <mxPoint x="460" y="310" as="targetPoint" />
          </mxGeometry>
        </mxCell>
        <mxCell id="xK1VYx0fI5H-2KNGupgd-25" value="TR(A)" style="whiteSpace=wrap;html=1;aspect=fixed;strokeColor=#000000;fillColor=none;" parent="1" vertex="1">
          <mxGeometry x="390" y="350" width="70" height="70" as="geometry" />
        </mxCell>
        <mxCell id="xK1VYx0fI5H-2KNGupgd-26" value="" style="endArrow=classic;html=1;exitX=1;exitY=0.5;exitDx=0;exitDy=0;entryX=0;entryY=0.5;entryDx=0;entryDy=0;" parent="1" source="xK1VYx0fI5H-2KNGupgd-18" target="xK1VYx0fI5H-2KNGupgd-25" edge="1">
          <mxGeometry width="50" height="50" relative="1" as="geometry">
            <mxPoint x="410" y="360" as="sourcePoint" />
            <mxPoint x="460" y="310" as="targetPoint" />
          </mxGeometry>
        </mxCell>
        <mxCell id="xK1VYx0fI5H-2KNGupgd-27" value="" style="endArrow=classic;html=1;exitX=1;exitY=0.5;exitDx=0;exitDy=0;entryX=0;entryY=0.5;entryDx=0;entryDy=0;" parent="1" source="xK1VYx0fI5H-2KNGupgd-19" target="xK1VYx0fI5H-2KNGupgd-25" edge="1">
          <mxGeometry width="50" height="50" relative="1" as="geometry">
            <mxPoint x="410" y="360" as="sourcePoint" />
            <mxPoint x="460" y="310" as="targetPoint" />
          </mxGeometry>
        </mxCell>
        <mxCell id="xK1VYx0fI5H-2KNGupgd-28" value="" style="endArrow=classic;html=1;exitX=1;exitY=0.5;exitDx=0;exitDy=0;entryX=0;entryY=0.5;entryDx=0;entryDy=0;" parent="1" source="xK1VYx0fI5H-2KNGupgd-20" target="xK1VYx0fI5H-2KNGupgd-25" edge="1">
          <mxGeometry width="50" height="50" relative="1" as="geometry">
            <mxPoint x="410" y="360" as="sourcePoint" />
            <mxPoint x="460" y="310" as="targetPoint" />
          </mxGeometry>
        </mxCell>
        <mxCell id="xK1VYx0fI5H-2KNGupgd-32" value="Xle" style="text;html=1;strokeColor=#000000;fillColor=none;align=center;verticalAlign=middle;whiteSpace=wrap;rounded=0;" parent="1" vertex="1">
          <mxGeometry x="490" y="350" width="40" height="20" as="geometry" />
        </mxCell>
        <mxCell id="xK1VYx0fI5H-2KNGupgd-33" value="Xhc" style="text;html=1;strokeColor=#000000;fillColor=none;align=center;verticalAlign=middle;whiteSpace=wrap;rounded=0;" parent="1" vertex="1">
          <mxGeometry x="490" y="375" width="40" height="20" as="geometry" />
        </mxCell>
        <mxCell id="xK1VYx0fI5H-2KNGupgd-34" value="Xhe" style="text;html=1;strokeColor=#000000;fillColor=none;align=center;verticalAlign=middle;whiteSpace=wrap;rounded=0;" parent="1" vertex="1">
          <mxGeometry x="490" y="400" width="40" height="20" as="geometry" />
        </mxCell>
        <mxCell id="xK1VYx0fI5H-2KNGupgd-35" value="" style="endArrow=classic;html=1;entryX=0;entryY=0.5;entryDx=0;entryDy=0;exitX=1;exitY=0.5;exitDx=0;exitDy=0;" parent="1" source="xK1VYx0fI5H-2KNGupgd-25" target="xK1VYx0fI5H-2KNGupgd-32" edge="1">
          <mxGeometry width="50" height="50" relative="1" as="geometry">
            <mxPoint x="410" y="360" as="sourcePoint" />
            <mxPoint x="460" y="310" as="targetPoint" />
          </mxGeometry>
        </mxCell>
        <mxCell id="xK1VYx0fI5H-2KNGupgd-36" value="" style="endArrow=classic;html=1;entryX=0;entryY=0.5;entryDx=0;entryDy=0;exitX=1;exitY=0.5;exitDx=0;exitDy=0;" parent="1" source="xK1VYx0fI5H-2KNGupgd-25" target="xK1VYx0fI5H-2KNGupgd-33" edge="1">
          <mxGeometry width="50" height="50" relative="1" as="geometry">
            <mxPoint x="410" y="360" as="sourcePoint" />
            <mxPoint x="460" y="310" as="targetPoint" />
          </mxGeometry>
        </mxCell>
        <mxCell id="xK1VYx0fI5H-2KNGupgd-37" value="" style="endArrow=classic;html=1;entryX=0;entryY=0.75;entryDx=0;entryDy=0;exitX=1;exitY=0.5;exitDx=0;exitDy=0;" parent="1" source="xK1VYx0fI5H-2KNGupgd-25" target="xK1VYx0fI5H-2KNGupgd-34" edge="1">
          <mxGeometry width="50" height="50" relative="1" as="geometry">
            <mxPoint x="410" y="360" as="sourcePoint" />
            <mxPoint x="460" y="310" as="targetPoint" />
          </mxGeometry>
        </mxCell>
        <mxCell id="xK1VYx0fI5H-2KNGupgd-38" value="全/輕/核/重(密度)" style="text;html=1;strokeColor=#000000;fillColor=none;align=center;verticalAlign=middle;whiteSpace=wrap;rounded=0;" parent="1" vertex="1">
          <mxGeometry x="310" y="250" width="120" height="20" as="geometry" />
        </mxCell>
        <mxCell id="xK1VYx0fI5H-2KNGupgd-39" value="全/輕/重/回(流量)" style="text;html=1;strokeColor=#000000;fillColor=none;align=center;verticalAlign=middle;whiteSpace=wrap;rounded=0;" parent="1" vertex="1">
          <mxGeometry x="310" y="80" width="120" height="20" as="geometry" />
        </mxCell>
        <mxCell id="xK1VYx0fI5H-2KNGupgd-40" value="Duty(E062 3.5K Steam Rate)" style="text;html=1;strokeColor=#000000;fillColor=none;align=center;verticalAlign=middle;whiteSpace=wrap;rounded=0;" parent="1" vertex="1">
          <mxGeometry x="310" y="275" width="180" height="20" as="geometry" />
        </mxCell>
        <mxCell id="xK1VYx0fI5H-2KNGupgd-41" value="Duty(Reboiler Heat Duty)" style="text;html=1;strokeColor=#000000;fillColor=none;align=center;verticalAlign=middle;whiteSpace=wrap;rounded=0;" parent="1" vertex="1">
          <mxGeometry x="310" y="300" width="180" height="20" as="geometry" />
        </mxCell>
        <mxCell id="xK1VYx0fI5H-2KNGupgd-42" value="C011 Tray 15 Temp" style="text;html=1;strokeColor=#000000;fillColor=none;align=center;verticalAlign=middle;whiteSpace=wrap;rounded=0;" parent="1" vertex="1">
          <mxGeometry x="310" y="105" width="120" height="20" as="geometry" />
        </mxCell>
        <mxCell id="xK1VYx0fI5H-2KNGupgd-43" value="C013 Tray 16 Temp" style="text;html=1;strokeColor=#000000;fillColor=none;align=center;verticalAlign=middle;whiteSpace=wrap;rounded=0;" parent="1" vertex="1">
          <mxGeometry x="310" y="130" width="120" height="20" as="geometry" />
        </mxCell>
        <mxCell id="xK1VYx0fI5H-2KNGupgd-44" value="" style="endArrow=classic;html=1;exitX=1;exitY=0.5;exitDx=0;exitDy=0;entryX=0;entryY=0.5;entryDx=0;entryDy=0;" parent="1" source="xK1VYx0fI5H-2KNGupgd-4" target="xK1VYx0fI5H-2KNGupgd-39" edge="1">
          <mxGeometry width="50" height="50" relative="1" as="geometry">
            <mxPoint x="410" y="310" as="sourcePoint" />
            <mxPoint x="460" y="260" as="targetPoint" />
          </mxGeometry>
        </mxCell>
        <mxCell id="xK1VYx0fI5H-2KNGupgd-45" value="" style="endArrow=classic;html=1;exitX=1;exitY=0.5;exitDx=0;exitDy=0;entryX=0;entryY=0.5;entryDx=0;entryDy=0;" parent="1" source="xK1VYx0fI5H-2KNGupgd-4" target="xK1VYx0fI5H-2KNGupgd-42" edge="1">
          <mxGeometry width="50" height="50" relative="1" as="geometry">
            <mxPoint x="410" y="310" as="sourcePoint" />
            <mxPoint x="460" y="260" as="targetPoint" />
          </mxGeometry>
        </mxCell>
        <mxCell id="xK1VYx0fI5H-2KNGupgd-46" value="" style="endArrow=classic;html=1;entryX=0;entryY=0.75;entryDx=0;entryDy=0;" parent="1" target="xK1VYx0fI5H-2KNGupgd-43" edge="1">
          <mxGeometry width="50" height="50" relative="1" as="geometry">
            <mxPoint x="280" y="145" as="sourcePoint" />
            <mxPoint x="460" y="260" as="targetPoint" />
          </mxGeometry>
        </mxCell>
        <mxCell id="xK1VYx0fI5H-2KNGupgd-47" value="" style="endArrow=classic;html=1;exitX=1;exitY=0.5;exitDx=0;exitDy=0;entryX=0;entryY=0.5;entryDx=0;entryDy=0;" parent="1" source="xK1VYx0fI5H-2KNGupgd-3" target="xK1VYx0fI5H-2KNGupgd-38" edge="1">
          <mxGeometry width="50" height="50" relative="1" as="geometry">
            <mxPoint x="410" y="360" as="sourcePoint" />
            <mxPoint x="460" y="310" as="targetPoint" />
          </mxGeometry>
        </mxCell>
        <mxCell id="xK1VYx0fI5H-2KNGupgd-48" value="" style="endArrow=classic;html=1;exitX=1;exitY=0.5;exitDx=0;exitDy=0;entryX=0;entryY=0.5;entryDx=0;entryDy=0;" parent="1" source="xK1VYx0fI5H-2KNGupgd-3" target="xK1VYx0fI5H-2KNGupgd-40" edge="1">
          <mxGeometry width="50" height="50" relative="1" as="geometry">
            <mxPoint x="410" y="360" as="sourcePoint" />
            <mxPoint x="460" y="310" as="targetPoint" />
          </mxGeometry>
        </mxCell>
        <mxCell id="xK1VYx0fI5H-2KNGupgd-49" value="" style="endArrow=classic;html=1;exitX=1;exitY=0.5;exitDx=0;exitDy=0;entryX=0;entryY=0.5;entryDx=0;entryDy=0;" parent="1" source="xK1VYx0fI5H-2KNGupgd-3" target="xK1VYx0fI5H-2KNGupgd-41" edge="1">
          <mxGeometry width="50" height="50" relative="1" as="geometry">
            <mxPoint x="410" y="360" as="sourcePoint" />
            <mxPoint x="460" y="310" as="targetPoint" />
          </mxGeometry>
        </mxCell>
        <mxCell id="xK1VYx0fI5H-2KNGupgd-50" value="" style="edgeStyle=elbowEdgeStyle;elbow=horizontal;endArrow=classic;html=1;exitX=1;exitY=0.5;exitDx=0;exitDy=0;" parent="1" source="xK1VYx0fI5H-2KNGupgd-1" edge="1">
          <mxGeometry width="50" height="50" relative="1" as="geometry">
            <mxPoint x="160" y="240" as="sourcePoint" />
            <mxPoint x="420" y="440" as="targetPoint" />
            <Array as="points">
              <mxPoint x="130" y="280" />
            </Array>
          </mxGeometry>
        </mxCell>
        <mxCell id="xK1VYx0fI5H-2KNGupgd-52" value="" style="endArrow=classic;html=1;entryX=0.431;entryY=1.017;entryDx=0;entryDy=0;entryPerimeter=0;" parent="1" target="xK1VYx0fI5H-2KNGupgd-25" edge="1">
          <mxGeometry width="50" height="50" relative="1" as="geometry">
            <mxPoint x="420" y="440" as="sourcePoint" />
            <mxPoint x="460" y="310" as="targetPoint" />
          </mxGeometry>
        </mxCell>
        <mxCell id="xK1VYx0fI5H-2KNGupgd-53" value="" style="rounded=0;whiteSpace=wrap;html=1;strokeColor=#000000;fillColor=none;" parent="1" vertex="1">
          <mxGeometry x="70" y="205" width="70" height="145" as="geometry" />
        </mxCell>
        <mxCell id="_rddUtldxbhCPeWxoHhE-1" value="Duty(Reboiler Heat Duty)" style="text;html=1;strokeColor=#000000;fillColor=none;align=center;verticalAlign=middle;whiteSpace=wrap;rounded=0;" vertex="1" parent="1">
          <mxGeometry x="310" y="160" width="180" height="20" as="geometry" />
        </mxCell>
        <mxCell id="_rddUtldxbhCPeWxoHhE-2" value="Duty(Condenser Heat Duty)" style="text;html=1;strokeColor=#000000;fillColor=none;align=center;verticalAlign=middle;whiteSpace=wrap;rounded=0;" vertex="1" parent="1">
          <mxGeometry x="310" y="190" width="180" height="20" as="geometry" />
        </mxCell>
        <mxCell id="_rddUtldxbhCPeWxoHhE-3" value="" style="endArrow=classic;html=1;exitX=1;exitY=0.5;exitDx=0;exitDy=0;entryX=0;entryY=0.5;entryDx=0;entryDy=0;" edge="1" parent="1" source="xK1VYx0fI5H-2KNGupgd-4" target="_rddUtldxbhCPeWxoHhE-1">
          <mxGeometry width="50" height="50" relative="1" as="geometry">
            <mxPoint x="370" y="300" as="sourcePoint" />
            <mxPoint x="420" y="250" as="targetPoint" />
          </mxGeometry>
        </mxCell>
        <mxCell id="_rddUtldxbhCPeWxoHhE-4" value="" style="endArrow=classic;html=1;entryX=0;entryY=0.5;entryDx=0;entryDy=0;" edge="1" parent="1" target="_rddUtldxbhCPeWxoHhE-2">
          <mxGeometry width="50" height="50" relative="1" as="geometry">
            <mxPoint x="280" y="150" as="sourcePoint" />
            <mxPoint x="420" y="250" as="targetPoint" />
          </mxGeometry>
        </mxCell>
      </root>
    </mxGraphModel>
  </diagram>
</mxfile>
